<svg id="myPLUS" xmlns="http://www.w3.org/2000/svg" xmlns:xlink="http://www.w3.org/1999/xlink" width="158.667" height="52.692" viewBox="0 0 158.667 52.692">
  <defs>
    <clipPath id="clip-path">
      <rect id="Rectangle_2158" data-name="Rectangle 2158" width="158.667" height="52.692" fill="none"/>
    </clipPath>
  </defs>
  <g id="Group_12501" data-name="Group 12501" clip-path="url(#clip-path)">
    <path id="Path_11391" data-name="Path 11391" d="M0,22.909V8.567H3.663V10.5h.084A4.518,4.518,0,0,1,7.912,8.175a4.29,4.29,0,0,1,3.97,2.517h.056a4.84,4.84,0,0,1,4.306-2.517,4.486,4.486,0,0,1,3.48,1.356,5.314,5.314,0,0,1,1.244,3.732v9.646h-3.8v-9q0-2.46-2.209-2.46a2.289,2.289,0,0,0-1.887.852,3.532,3.532,0,0,0-.685,2.279v8.332h-3.8v-9q0-2.46-2.209-2.46a2.311,2.311,0,0,0-1.859.852A3.441,3.441,0,0,0,3.8,14.578v8.332Z" transform="translate(0 -2.555)" fill="blue"/>
    <path id="Path_11392" data-name="Path 11392" d="M33.45,27.783V24.792h1.342c1.416,0,2.4-.652,2.4-1.957a14.738,14.738,0,0,0-1.09-3.886l-3.858-10.2h4L38.366,15.2l.923,3.131h.056a28.318,28.318,0,0,1,.839-3.131L42.2,8.744h3.83l-5,14.706a8.1,8.1,0,0,1-2.162,3.4,4.645,4.645,0,0,1-3.173.937Z" transform="translate(-10.079 -2.733)" fill="blue"/>
    <path id="Path_11393" data-name="Path 11393" d="M55.145,20.518V.529h8.779A6.95,6.95,0,0,1,69.152,2.4a6.292,6.292,0,0,1,1.789,4.557,6.093,6.093,0,0,1-1.789,4.585,6.733,6.733,0,0,1-4.892,1.733H59.339v7.241ZM59.339,4.051V9.979h4.194a3.355,3.355,0,0,0,2.4-.8,2.879,2.879,0,0,0,.839-2.194,2.79,2.79,0,0,0-.839-2.167,3.346,3.346,0,0,0-2.348-.769Z" transform="translate(-17.237 -0.165)" fill="blue"/>
    <path id="Path_11394" data-name="Path 11394" d="M81.093,20.519V.529h4.054V17.136h9.394v3.383Z" transform="translate(-25.348 -0.165)" fill="blue"/>
    <path id="Path_11395" data-name="Path 11395" d="M111.44,20.855a8.711,8.711,0,0,1-5.871-1.747,6.286,6.286,0,0,1-2.013-5.018V.529h4.054v13.56q0,3.522,3.746,3.522a3.766,3.766,0,0,0,2.824-.978,3.576,3.576,0,0,0,.951-2.6V.529h4.054v13.56a6.363,6.363,0,0,1-1.971,5,8.409,8.409,0,0,1-5.774,1.761" transform="translate(-32.37 -0.165)" fill="blue"/>
    <path id="Path_11396" data-name="Path 11396" d="M138.184,20.8a10.122,10.122,0,0,1-6.291-1.719,6.111,6.111,0,0,1-2.348-4.907h3.97a3.459,3.459,0,0,0,1.272,2.572,5.483,5.483,0,0,0,3.229.783,5.544,5.544,0,0,0,2.8-.63,2.09,2.09,0,0,0,1.09-1.943,2.691,2.691,0,0,0-.126-.853,1.4,1.4,0,0,0-.517-.671q-.392-.293-.671-.475a4.177,4.177,0,0,0-1.035-.392q-.755-.209-1.147-.307t-1.454-.349q-1.286-.308-2.11-.531a10.763,10.763,0,0,1-1.818-.7,5.63,5.63,0,0,1-1.565-1.048,4.628,4.628,0,0,1-.965-1.51,5.5,5.5,0,0,1-.391-2.139,5.168,5.168,0,0,1,2.111-4.431A9.148,9.148,0,0,1,137.764,0a8.517,8.517,0,0,1,5.452,1.622,6.177,6.177,0,0,1,2.264,4.613h-3.886A3.1,3.1,0,0,0,140.379,4a4.3,4.3,0,0,0-2.642-.783,4.731,4.731,0,0,0-2.628.643,1.959,1.959,0,0,0-.978,1.705,1.781,1.781,0,0,0,.964,1.678,13.96,13.96,0,0,0,3.4,1.062q1.454.308,2.376.573a14.8,14.8,0,0,1,2,.755,5.854,5.854,0,0,1,1.678,1.076,4.678,4.678,0,0,1,1.006,1.552,5.71,5.71,0,0,1,.4,2.222,5.558,5.558,0,0,1-2.152,4.641,8.887,8.887,0,0,1-5.62,1.677" transform="translate(-40.493 0)" fill="blue"/>
    <path id="Path_11397" data-name="Path 11397" d="M153.84,22.486V.422h-8.274V22.486H123.5v2.789H55.145v2.7H123.5V30.76h22.063V52.824h8.274V30.76H175.9V22.486Z" transform="translate(-17.237 -0.132)" fill="#ff6500"/>
  </g>
</svg>
