<svg xmlns="http://www.w3.org/2000/svg" version="1.1" viewBox="-5.0 -10.0 110.0 135.0">
    <g fill-rule="evenodd">
        <path
            d="m24.336 8.1992h51.297v83.566h-51.297zm37.871 36.91-13.273-8.8477c-1.7969-1.1992-4.1094-1.3086-6.0117-0.28906-1.9062 1.0195-3.0938 3.0039-3.0938 5.1641v17.695c0 2.1602 1.1875 4.1445 3.0938 5.1641 1.9062 1.0195 4.2148 0.90625 6.0117-0.28906l13.273-8.8477c1.6289-1.0859 2.6094-2.9141 2.6094-4.875 0-1.957-0.98047-3.7891-2.6094-4.875z" />
        <path
            d="m60.043 48.359c0.54297 0.36328 0.87109 0.97266 0.87109 1.625s-0.32812 1.2617-0.87109 1.625c-3.4023 2.2695-9.5742 6.3828-13.273 8.8477-0.59766 0.39844-1.3711 0.4375-2.0039 0.097657-0.63672-0.33984-1.0312-1-1.0312-1.7227v-17.695c0-0.71875 0.39453-1.3828 1.0312-1.7227 0.63672-0.33984 1.4062-0.30078 2.0039 0.097657 3.6953 2.4648 9.8672 6.5781 13.273 8.8477z" />
        <path
            d="m20.434 23.039h-12.23v-7.0273c0-2.0703 0.82422-4.0586 2.2891-5.5234 1.4648-1.4648 3.4492-2.2891 5.5234-2.2891h4.4219v14.84z" />
        <path d="m20.434 48.031h-12.23v-21.086h12.23z" />
        <path d="m20.434 73.023h-12.23v-21.086h12.23z" />
        <path
            d="m8.1992 76.93h12.23v14.84h-4.4219c-2.0703 0-4.0586-0.82422-5.5234-2.2891-1.4648-1.4648-2.2891-3.4531-2.2891-5.5234v-7.0273z" />
        <path
            d="m79.535 76.93h12.23v7.0273c0 2.0703-0.82422 4.0586-2.2891 5.5234-1.4648 1.4648-3.4531 2.2891-5.5234 2.2891h-4.4219v-14.84z" />
        <path d="m91.77 73.023h-12.23v-21.086h12.23z" />
        <path d="m91.77 48.031h-12.23v-21.086h12.23z" />
        <path
            d="m91.77 23.039h-12.23v-14.84h4.4219c2.0703 0 4.0586 0.82422 5.5234 2.2891 1.4648 1.4648 2.2891 3.4492 2.2891 5.5234v7.0273z" />
    </g>
</svg>